<?xml version="1.0" encoding="UTF-8" standalone="no"?>
<svg width="28px" height="26px" viewBox="0 0 28 26" version="1.1" xmlns="http://www.w3.org/2000/svg" xmlns:xlink="http://www.w3.org/1999/xlink" xmlns:sketch="http://www.bohemiancoding.com/sketch/ns">
    <!-- Generator: Sketch 3.3.1 (12002) - http://www.bohemiancoding.com/sketch -->
    <title>Ingredients</title>
    <desc>Created with Sketch.</desc>
    <defs></defs>
    <g id="Page-1" stroke="none" stroke-width="1" fill="none" fill-rule="evenodd" sketch:type="MSPage">
        <g id="Ingredients" sketch:type="MSArtboardGroup" fill="#EEEEEE">
            <g id="Ingredients-Button" sketch:type="MSLayerGroup">
                <path d="M9,10.9254445 L9,10.1869198 C9,9.0768971 9.89303026,8.1770459 11.000013,8.1770459 L11.4354167,8.1770459 L11.4354167,0 L14.8643534,3.89286774e-09 L14.8643533,8.17704591 L15.0044791,8.17704591 C16.1065749,8.17704591 17,9.0731033 17,10.1869198 L17,12.3155832 L17,12.3155832 C15.2364574,13.0669427 14,14.8161699 14,16.8541594 L14,22.9919944 C14,24.1242567 14.3816763,25.1674469 15.0233971,25.9998877 C15.0162404,25.9999625 15.0090742,26 15.0018986,26 L11,26 L11,11.9288645 C11,11.3698179 10.5540587,10.9254445 10.0039622,10.9254445 L9,10.9254445 L9,10.9254445 Z" id="Rectangle-18" sketch:type="MSShapeGroup"></path>
                <path d="M19.9998779,13 L19.0065045,13 C16.7939455,13 15,14.7937732 15,17.0065045 L15,21.9934955 C15,24.2060545 16.7937732,26 19.0065045,26 L23.9934955,26 C26.2060545,26 28,24.2062268 28,21.9934955 L28,17.0065045 C28,14.7939455 26.2062268,13 23.9934955,13 L23,13 L23,12 L24,12 L24,9 L19,9 L19,12 L19.9969482,12 L19.9998779,13 L19.9998779,13 Z" id="Rectangle-17" sketch:type="MSShapeGroup"></path>
                <path d="M0,12.6053689 C0,12.0526247 0.449192646,11.6045371 0.996808129,11.6045371 L2.0474627,11.6045371 C2.59798463,11.6045371 3.04427083,11.1505805 3.04427083,10.60145 L3.04427083,6.00308703 C3.04427083,5.44909736 3.4868227,5 4.03837787,5 L6.33633476,5 C6.88536491,5 7.33044178,5.45395658 7.33044178,6.00308703 L7.3304417,10.6014501 C7.33044169,11.1554397 7.77126494,11.6045371 8.32448667,11.6045371 L9.00595501,11.6045371 C9.5549509,11.6045371 10,12.0511502 10,12.6053689 L10,24.9991682 C10,25.5519123 9.5443356,26 9.00460243,26 L0.995397568,26 C0.445654671,26 0,25.5533869 0,24.9991682 L0,12.6053689 Z" id="Rectangle-17" sketch:type="MSShapeGroup"></path>
            </g>
        </g>
    </g>
</svg>